<?xml version="1.0" encoding="utf-8"?>
<!-- Designed by Vexels.com - 2016 All Rights Reserved - https://vexels.com/terms-and-conditions/  -->

<svg version="1.1" id="Design" xmlns="http://www.w3.org/2000/svg" xmlns:xlink="http://www.w3.org/1999/xlink" x="0px" y="0px"
	 width="1200px" height="1200px" viewBox="0 0 1200 1200" enable-background="new 0 0 1200 1200" xml:space="preserve">
<g>
	<g>
		<path fill="#fff" d="M643.693,514.713c0,0,1.626-2.039,4.789-6.002c3.332-4.038,8.201-9.936,14.909-17.362
			c13.461-14.74,34.103-36.043,65.052-57.929c15.515-10.816,33.587-21.785,54.608-31.264c20.967-9.558,44.86-17.632,71.256-22.669
			c13.192-2.532,26.968-4.33,41.242-5.238c3.719-0.166,7.466-0.362,11.235-0.527c3.511,0,6.696-0.121,10.544-0.012
			c8.139,0.28,15.79,0.85,23.513,1.941c30.962,4.237,62.444,14.863,92.031,32.203c29.593,17.22,57.447,41.428,79.053,72.88
			c10.724,15.735,19.664,33.306,26.227,52.207c6.607,18.869,10.354,39.12,11.477,59.693c2.311,40.225-6.069,84.412-27.646,123.013
			c-10.596,19.396-24.388,37.215-40.272,53.06c-16.024,15.683-34.152,29.391-53.918,40.559
			c-19.749,11.189-41.058,19.984-63.532,25.986c-11.252,2.928-22.767,5.328-34.568,6.764c-5.911,0.674-11.846,1.347-17.881,1.571
			l-4.521,0.213l-1.122,0.056l-1.672,0.022l-1.885,0.034l-3.78,0.084l-1.906,0.033l-2.362-0.045
			c-3.124-0.084-6.45-0.106-9.405-0.258l-8.862-0.533c-5.89-0.448-11.779-1.076-17.641-1.856
			c-11.717-1.648-23.344-3.92-34.792-6.792c-22.884-5.788-44.972-14.09-66.006-24.079c-42.066-20.119-79.888-46.913-113.345-77.577
			c-16.815-15.272-32.42-31.668-47.183-48.77c-7.445-8.509-14.474-17.371-21.351-26.446c-6.896-9.131-13.461-18.195-20.211-28.403
			l-3.848-5.979l-3.792-5.626c-2.605-3.809-5.362-7.646-8.155-11.487c-5.514-7.718-11.372-15.299-17.265-22.859
			c-11.859-15.065-24.289-29.693-37.137-43.747c-25.876-27.879-53.725-53.495-84.266-73.207
			c-30.353-19.9-63.63-33.205-97.421-37.064c-4.221-0.46-8.447-0.86-12.676-1.021l-0.791-0.059c1.606-0.045-0.093-0.012,0.017-0.022
			h-1.885l-3.755-0.022l-1.873-0.012c-0.665,0-1.251,0-1.633,0.022l-2.664,0.121c-3.337,0.011-7.749,0.505-11.756,0.872
			c-4.095,0.553-8.198,1.08-12.281,1.918c-16.367,3.097-32.549,8.537-47.74,15.876c-30.417,14.64-57.073,36.604-75.51,63.048
			c-9.229,13.214-16.476,27.506-21.462,42.392c-1.108,3.758-2.449,7.46-3.262,11.285l-1.396,5.688l-1.058,5.755
			c-0.855,3.825-1.085,7.731-1.654,11.568c-0.286,1.94-0.286,3.893-0.44,5.833l-0.202,2.92l-0.104,1.458l-0.045,0.729
			c-0.048-1.305-0.011,0.12-0.031,0.045l-0.006,6.733l-0.005,3.343c-0.017,1.161,0.098,1.846,0.126,2.788
			c0.225,3.556,0.272,7.017,0.822,10.938l0.651,5.688l0.981,5.653c0.533,3.792,1.596,7.426,2.4,11.134
			c3.682,14.724,9.667,28.706,17.06,41.747c14.942,25.997,36.167,47.743,59.704,64.065c23.6,16.311,49.485,27.669,75.045,33.165
			c6.38,1.363,12.738,2.496,19.028,3.107c3.152,0.398,6.271,0.623,9.384,0.763l2.333,0.129l0.572,0.034
			c0.076,0.011,0.662,0.027,0.312,0.039l1.281,0.011l5.088,0.045l5.03,0.051l4.619-0.106c3.068-0.062,6.128-0.118,9.264-0.354
			c6.231-0.292,12.342-0.886,18.353-1.554c48.158-5.794,88.001-23.232,118.062-41.416c30.174-18.363,51.165-37.227,64.909-50.436
			c6.857-6.646,11.894-12.003,15.29-15.604c3.337-3.663,5.06-5.536,5.06-5.536l0.12-0.129c3.377-3.68,9.098-3.943,12.786-0.562
			c3.572,3.248,3.909,8.733,0.866,12.43c0,0-1.699,2.047-4.992,6.023c-3.354,3.955-8.332,9.771-15.175,17.103
			c-13.714,14.51-34.747,35.437-66.062,56.706c-15.686,10.511-33.92,21.134-55.063,30.142c-21.106,9.036-45.023,16.721-71.38,21.186
			c-6.582,1.116-13.296,2.143-20.161,2.844c-3.388,0.448-6.921,0.746-10.511,1.004l-5.382,0.409l-5.076,0.247l-5.085,0.224
			l-1.278,0.073l-1.666,0.012h-2.805c-3.743,0.033-7.516-0.012-11.29-0.27c-7.569-0.319-15.181-1.229-22.82-2.418
			c-30.594-4.823-61.438-16.311-90.391-33.962c-14.49-8.828-28.395-19.435-41.354-31.685c-12.917-12.283-25.007-26.183-35.19-41.988
			c-10.183-15.75-18.874-33.16-24.898-51.916c-1.377-4.723-2.993-9.412-4.039-14.28l-1.722-7.27l-1.349-7.393
			c-0.965-4.79-1.517-10.208-2.104-15.525c-0.121-1.256-0.322-2.793-0.373-3.858l-0.196-3.36l-0.406-6.697
			c-0.012-0.625-0.04,0.225-0.051-1.623v-0.954v-1.907v-3.836c0.039-2.547-0.064-5.107,0.112-7.673
			c0.37-5.13,0.454-10.313,1.195-15.447l0.953-7.74l1.363-7.732c0.822-5.18,2.193-10.275,3.421-15.404
			c5.401-20.428,13.963-40.32,25.165-58.715c22.48-36.897,55.337-67.59,94.083-89.417c19.407-10.89,40.429-19.595,62.823-25.353
			c5.589-1.491,11.285-2.647,17.028-3.766c5.875-0.954,11.355-1.919,18.013-2.493l4.818-0.449c1.736-0.177,2.631-0.165,3.985-0.27
			l3.752-0.201l1.885-0.112c0.74-0.025-0.334-0.037,1.904-0.07l1.088-0.012c5.816-0.114,11.63-0.081,17.452,0.104
			c23.33,0.796,46.484,4.904,68.928,10.935c11.218,3.063,22.251,6.756,33.034,10.935c10.813,4.108,21.403,8.732,31.749,13.764
			c41.341,20.291,78.848,46.799,112.302,77.078c16.796,15.11,32.537,31.233,47.34,48.223c14.724,17.018,28.802,34.84,41.579,54.448
			c4.733,7.225,10.359,15.122,16.019,22.624c5.722,7.592,11.7,15.032,17.68,22.492c12.042,14.841,24.813,29.009,37.894,42.65
			c26.379,26.979,54.676,51.411,85.301,69.819c15.29,9.176,31.141,16.793,47.328,22.47c8.099,2.849,16.282,5.205,24.533,6.978
			c4.122,0.886,8.256,1.638,12.407,2.299l6.214,0.848l5.671,0.622l1.386,0.146l1.879,0.111l3.764,0.202l1.885,0.118
			c-0.012,0.011,1.352,0.039,0.213,0.039l0.752,0.011l3.006,0.045c4.005,0.152,8.065-0.056,12.115-0.201
			c8.133-0.415,16.3-1.56,24.398-3.074c16.21-3.141,32.095-8.436,46.925-15.559c29.738-14.169,55.074-35.763,71.884-62.046
			c8.582-13.041,14.818-27.355,19.183-42.207c1.194-3.696,1.867-7.533,2.872-11.274c0.684-3.764,1.469-7.734,2.019-11.358
			l0.673-5.339l0.365-2.659l0.225-3.332l0.409-6.753l0.101-1.693c0.034-1.013,0.034,0.412,0.022,0.011l0.012-0.707l0.017-2.871
			c0.196-15.242-1.48-30.319-5.446-44.678c-3.927-14.348-9.715-28.093-17.152-40.803c-14.998-25.375-36.031-46.677-59.521-62.52
			c-23.429-15.997-49.274-26.685-74.576-31.893c-6.338-1.357-12.71-2.201-18.431-2.85c-3.085-0.316-6.815-0.438-10.158-0.673
			c-3.073-0.045-6.131-0.104-9.171-0.165c-12.743-0.037-25.139,0.74-37.063,2.221c-47.889,5.791-87.583,23.313-117.619,41.498
			c-30.108,18.397-51.131,37.266-64.906,50.458c-6.877,6.674-11.925,12.025-15.268,15.57c-3.421,3.721-5.171,5.64-5.171,5.64
			c-3.175,3.485-8.565,3.732-12.049,0.563C641.281,523.306,640.934,518.2,643.693,514.713z"/>
	</g>
</g>
</svg>
